<svg xmlns="http://www.w3.org/2000/svg" viewBox="0 0 512 512">
  <defs>
    <linearGradient id="g1" x1="0%" y1="0%" x2="100%" y2="100%">
      <stop offset="0%" stop-color="#818CF8"/>
      <stop offset="40%" stop-color="#6366F1"/>
      <stop offset="100%" stop-color="#14B8A6"/>
    </linearGradient>
    <linearGradient id="g2" x1="0%" y1="0%" x2="0%" y2="100%">
      <stop offset="0%" stop-color="#C4B5FD"/>
      <stop offset="100%" stop-color="#6366F1"/>
    </linearGradient>
    <linearGradient id="bg" x1="0%" y1="0%" x2="100%" y2="100%">
      <stop offset="0%" stop-color="#1E1B4B"/>
      <stop offset="100%" stop-color="#0F0A2A"/>
    </linearGradient>
  </defs>

  <!-- Solid dark indigo background — macOS clips to rounded square automatically -->
  <rect width="512" height="512" fill="url(#bg)"/>

  <!-- Soundwave bars centered -->
  <g transform="translate(236, 256)">
    <rect x="-168" y="-18" width="18" height="36" rx="9" fill="url(#g1)" opacity="0.4"/>
    <rect x="-136" y="-38" width="18" height="76" rx="9" fill="url(#g1)" opacity="0.55"/>
    <rect x="-104" y="-64" width="20" height="128" rx="10" fill="url(#g1)" opacity="0.75"/>
    <rect x="-70" y="-84" width="20" height="168" rx="10" fill="url(#g1)" opacity="0.9"/>
    <rect x="-36" y="-64" width="20" height="128" rx="10" fill="url(#g1)" opacity="0.95"/>
    <rect x="0" y="-100" width="24" height="200" rx="12" fill="url(#g2)"/>
    <rect x="36" y="-54" width="20" height="108" rx="10" fill="url(#g1)" opacity="0.9"/>
    <rect x="70" y="-38" width="20" height="76" rx="10" fill="url(#g1)" opacity="0.7"/>
    <rect x="104" y="-26" width="18" height="52" rx="9" fill="url(#g1)" opacity="0.5"/>
    <rect x="136" y="-16" width="18" height="32" rx="9" fill="url(#g1)" opacity="0.35"/>
    <circle cx="164" cy="3" r="8" fill="#14B8A6" opacity="0.65"/>
  </g>
</svg>
